<svg width="209" height="209" viewBox="0 0 209 209" fill="none" xmlns="http://www.w3.org/2000/svg">
<path d="M0 104.135C0 161.647 46.6227 208.269 104.135 208.269C161.647 208.269 208.269 161.647 208.269 104.135C208.269 46.6227 161.647 0 104.135 0C46.6227 0 0 46.6227 0 104.135Z" fill="#FBBC04"/>
<path d="M52.7176 102.236C80.671 90.0573 99.3109 82.0282 108.637 78.149C135.267 67.073 140.8 65.149 144.407 65.0848C145.2 65.0715 146.973 65.2681 148.122 66.2003C149.092 66.9874 149.359 68.0507 149.487 68.797C149.615 69.5434 149.774 71.2434 149.647 72.5719C148.204 87.7341 141.96 124.529 138.784 141.511C137.439 148.696 134.793 151.106 132.23 151.341C126.662 151.854 122.434 147.661 117.04 144.126C108.601 138.594 103.833 135.15 95.6413 129.752C86.1742 123.513 92.3113 120.084 97.7067 114.48C99.1186 113.014 123.653 90.6978 124.128 88.6734C124.187 88.4202 124.243 87.4764 123.682 86.9781C123.121 86.4797 122.294 86.6501 121.697 86.7857C120.85 86.9778 107.368 95.8889 81.2503 113.519C77.4235 116.147 73.9573 117.427 70.8516 117.36C67.4279 117.286 60.8421 115.424 55.9462 113.833C49.9412 111.881 45.1685 110.849 45.5841 107.534C45.8006 105.807 48.1784 104.041 52.7176 102.236Z" fill="white"/>
</svg>
