<svg width="209" height="209" viewBox="0 0 209 209" fill="none" xmlns="http://www.w3.org/2000/svg">
<path d="M0 104.135C0 161.647 46.6227 208.269 104.135 208.269C161.647 208.269 208.269 161.647 208.269 104.135C208.269 46.6227 161.647 0 104.135 0C46.6227 0 0 46.6227 0 104.135Z" fill="#FBBC04"/>
<path d="M156.202 71.5926C152.297 73.5451 148.392 74.1959 143.836 74.8468C148.392 72.2434 151.646 68.3384 152.948 63.1316C149.043 65.735 144.487 67.0367 139.28 68.3384C135.375 64.4333 129.517 61.83 123.66 61.83C109.992 61.83 99.5788 74.8468 102.833 87.8636C85.2603 87.2128 69.64 78.7518 58.5757 65.735C52.7182 75.4976 55.9724 87.8636 65.0842 94.372C61.8299 94.372 58.5757 93.0703 55.3215 91.7687C55.3215 101.531 62.4808 110.643 72.2434 113.246C68.9892 113.897 65.735 114.548 62.4808 113.897C65.0842 122.358 72.8943 128.867 82.6569 128.867C74.8468 134.724 63.1316 137.978 52.0673 136.677C61.8299 142.534 72.8943 146.439 84.6094 146.439C124.311 146.439 146.439 113.246 145.138 82.6569C149.694 80.0535 153.599 76.1485 156.202 71.5926Z" fill="white"/>
</svg>
