<svg width="209" height="209" viewBox="0 0 209 209" fill="none" xmlns="http://www.w3.org/2000/svg">
<path d="M0 104.135C0 161.647 46.6227 208.269 104.135 208.269C161.647 208.269 208.269 161.647 208.269 104.135C208.269 46.6227 161.647 0 104.135 0C46.6227 0 0 46.6227 0 104.135Z" fill="#FBBC04"/>
<path fill-rule="evenodd" clip-rule="evenodd" d="M140.582 67.0367C130.819 57.2741 117.802 52.0673 104.135 52.0673C75.4976 52.0673 52.0673 75.4976 52.0673 104.135C52.0673 113.246 54.6707 122.358 59.2266 130.168L52.0673 156.202L79.4027 149.043C87.2128 152.948 95.6737 155.551 104.135 155.551C132.772 155.551 156.202 132.121 156.202 103.484C156.202 89.8161 150.344 76.7993 140.582 67.0367ZM104.135 147.09C96.3245 147.09 88.5145 145.138 82.006 141.233L80.7043 140.582L64.4332 145.138L68.9892 129.517L67.6874 127.565C63.1316 120.406 61.179 112.596 61.179 104.785C61.179 81.3552 80.7043 61.8299 104.135 61.8299C115.85 61.8299 126.263 66.3858 134.724 74.1959C143.185 82.6569 147.09 93.0703 147.09 104.785C147.09 127.565 128.216 147.09 104.135 147.09ZM127.565 114.548C126.263 113.897 119.755 110.643 118.453 110.643C117.152 109.992 116.501 109.992 115.85 111.294C115.199 112.596 112.596 115.199 111.945 116.501C111.294 117.151 110.643 117.151 109.341 117.151C108.04 116.501 104.135 115.199 98.928 110.643C95.0229 107.389 92.4195 102.833 91.7687 101.531C91.1178 100.23 91.7687 99.5788 92.4195 98.9279C93.0704 98.2771 93.7211 97.6262 94.372 96.9754C95.0228 96.3245 95.0229 95.6737 95.6737 95.0229C96.3246 94.372 95.6737 93.7212 95.6737 93.0703C95.6737 92.4195 93.0703 85.9111 91.7687 83.3077C91.1178 81.3552 89.8162 81.3552 89.1653 81.3552C88.5145 81.3552 87.8635 81.3552 86.5618 81.3552C85.911 81.3552 84.6093 81.3552 83.3076 82.6569C82.0059 83.9586 78.7518 87.2128 78.7518 93.7212C78.7518 100.23 83.3076 106.087 83.9585 107.389C84.6093 108.04 93.0702 121.707 106.087 126.914C117.151 131.47 119.104 130.168 121.707 130.168C124.311 130.168 129.517 126.914 130.168 124.311C131.47 121.057 131.47 118.453 130.819 118.453C130.168 115.199 128.867 115.199 127.565 114.548Z" fill="white"/>
</svg>
